<mxfile host="app.diagrams.net" agent="Mozilla/5.0 (Windows NT 10.0; Win64; x64) AppleWebKit/537.36 (KHTML, like Gecko) Chrome/135.0.0.0 Safari/537.36" version="26.2.9">
  <diagram name="Page-1" id="oqhReLrGQhSx3HRFwQ2_">
    <mxGraphModel dx="1044" dy="562" grid="1" gridSize="10" guides="1" tooltips="1" connect="1" arrows="1" fold="1" page="1" pageScale="1" pageWidth="850" pageHeight="1100" math="0" shadow="0">
      <root>
        <mxCell id="0" />
        <mxCell id="1" parent="0" />
        <mxCell id="ollO1iBpmnBTuX-cM9Qd-10" style="edgeStyle=orthogonalEdgeStyle;rounded=0;orthogonalLoop=1;jettySize=auto;html=1;exitX=0.5;exitY=1;exitDx=0;exitDy=0;entryX=0.5;entryY=0;entryDx=0;entryDy=0;" edge="1" parent="1" source="ollO1iBpmnBTuX-cM9Qd-2" target="ollO1iBpmnBTuX-cM9Qd-9">
          <mxGeometry relative="1" as="geometry" />
        </mxCell>
        <mxCell id="ollO1iBpmnBTuX-cM9Qd-2" value="user" style="rounded=0;whiteSpace=wrap;html=1;" vertex="1" parent="1">
          <mxGeometry x="310" y="60" width="130" height="30" as="geometry" />
        </mxCell>
        <mxCell id="ollO1iBpmnBTuX-cM9Qd-6" value="shard3 (lender)" style="rounded=0;whiteSpace=wrap;html=1;" vertex="1" parent="1">
          <mxGeometry x="530" y="250" width="130" height="30" as="geometry" />
        </mxCell>
        <mxCell id="ollO1iBpmnBTuX-cM9Qd-7" value="shard 2 (platform)" style="rounded=0;whiteSpace=wrap;html=1;" vertex="1" parent="1">
          <mxGeometry x="305" y="250" width="130" height="30" as="geometry" />
        </mxCell>
        <mxCell id="ollO1iBpmnBTuX-cM9Qd-8" value="shard1 (user)" style="rounded=0;whiteSpace=wrap;html=1;" vertex="1" parent="1">
          <mxGeometry x="100" y="250" width="130" height="30" as="geometry" />
        </mxCell>
        <mxCell id="ollO1iBpmnBTuX-cM9Qd-11" style="edgeStyle=orthogonalEdgeStyle;rounded=0;orthogonalLoop=1;jettySize=auto;html=1;exitX=0.5;exitY=1;exitDx=0;exitDy=0;" edge="1" parent="1" source="ollO1iBpmnBTuX-cM9Qd-9" target="ollO1iBpmnBTuX-cM9Qd-8">
          <mxGeometry relative="1" as="geometry" />
        </mxCell>
        <mxCell id="ollO1iBpmnBTuX-cM9Qd-13" style="edgeStyle=orthogonalEdgeStyle;rounded=0;orthogonalLoop=1;jettySize=auto;html=1;exitX=0.5;exitY=1;exitDx=0;exitDy=0;entryX=0.5;entryY=0;entryDx=0;entryDy=0;" edge="1" parent="1" source="ollO1iBpmnBTuX-cM9Qd-9" target="ollO1iBpmnBTuX-cM9Qd-6">
          <mxGeometry relative="1" as="geometry" />
        </mxCell>
        <mxCell id="ollO1iBpmnBTuX-cM9Qd-9" value="wallet creation" style="rounded=0;whiteSpace=wrap;html=1;" vertex="1" parent="1">
          <mxGeometry x="310" y="150" width="130" height="30" as="geometry" />
        </mxCell>
        <mxCell id="ollO1iBpmnBTuX-cM9Qd-12" style="edgeStyle=orthogonalEdgeStyle;rounded=0;orthogonalLoop=1;jettySize=auto;html=1;exitX=0.5;exitY=1;exitDx=0;exitDy=0;entryX=0.538;entryY=0.333;entryDx=0;entryDy=0;entryPerimeter=0;" edge="1" parent="1" source="ollO1iBpmnBTuX-cM9Qd-9" target="ollO1iBpmnBTuX-cM9Qd-7">
          <mxGeometry relative="1" as="geometry" />
        </mxCell>
        <mxCell id="ollO1iBpmnBTuX-cM9Qd-15" value="DKG(distributed key generation)" style="text;html=1;align=center;verticalAlign=middle;whiteSpace=wrap;rounded=0;" vertex="1" parent="1">
          <mxGeometry x="425" y="180" width="240" height="30" as="geometry" />
        </mxCell>
        <mxCell id="ollO1iBpmnBTuX-cM9Qd-18" value="generated random secret scalar (independently)" style="text;html=1;align=center;verticalAlign=middle;whiteSpace=wrap;rounded=0;" vertex="1" parent="1">
          <mxGeometry x="110" y="300" width="90" height="30" as="geometry" />
        </mxCell>
        <mxCell id="ollO1iBpmnBTuX-cM9Qd-19" value="generated random secret scalar (independently)" style="text;html=1;align=center;verticalAlign=middle;whiteSpace=wrap;rounded=0;" vertex="1" parent="1">
          <mxGeometry x="550" y="300" width="90" height="30" as="geometry" />
        </mxCell>
        <mxCell id="ollO1iBpmnBTuX-cM9Qd-20" value="generated random secret scalar (independently)" style="text;html=1;align=center;verticalAlign=middle;whiteSpace=wrap;rounded=0;" vertex="1" parent="1">
          <mxGeometry x="325" y="300" width="90" height="30" as="geometry" />
        </mxCell>
        <mxCell id="ollO1iBpmnBTuX-cM9Qd-40" style="edgeStyle=orthogonalEdgeStyle;rounded=0;orthogonalLoop=1;jettySize=auto;html=1;entryX=0;entryY=0.5;entryDx=0;entryDy=0;" edge="1" parent="1" source="ollO1iBpmnBTuX-cM9Qd-22" target="ollO1iBpmnBTuX-cM9Qd-28">
          <mxGeometry relative="1" as="geometry" />
        </mxCell>
        <mxCell id="ollO1iBpmnBTuX-cM9Qd-22" value="compute respective public commitments" style="text;html=1;align=center;verticalAlign=middle;whiteSpace=wrap;rounded=0;" vertex="1" parent="1">
          <mxGeometry x="125" y="370" width="60" height="30" as="geometry" />
        </mxCell>
        <mxCell id="ollO1iBpmnBTuX-cM9Qd-41" style="edgeStyle=orthogonalEdgeStyle;rounded=0;orthogonalLoop=1;jettySize=auto;html=1;" edge="1" parent="1" source="ollO1iBpmnBTuX-cM9Qd-23">
          <mxGeometry relative="1" as="geometry">
            <mxPoint x="370" y="470" as="targetPoint" />
          </mxGeometry>
        </mxCell>
        <mxCell id="ollO1iBpmnBTuX-cM9Qd-23" value="compute respective public commitments" style="text;html=1;align=center;verticalAlign=middle;whiteSpace=wrap;rounded=0;" vertex="1" parent="1">
          <mxGeometry x="340" y="370" width="60" height="30" as="geometry" />
        </mxCell>
        <mxCell id="ollO1iBpmnBTuX-cM9Qd-42" style="edgeStyle=orthogonalEdgeStyle;rounded=0;orthogonalLoop=1;jettySize=auto;html=1;entryX=1;entryY=0.25;entryDx=0;entryDy=0;" edge="1" parent="1" source="ollO1iBpmnBTuX-cM9Qd-24" target="ollO1iBpmnBTuX-cM9Qd-28">
          <mxGeometry relative="1" as="geometry" />
        </mxCell>
        <mxCell id="ollO1iBpmnBTuX-cM9Qd-24" value="compute respective public commitments" style="text;html=1;align=center;verticalAlign=middle;whiteSpace=wrap;rounded=0;" vertex="1" parent="1">
          <mxGeometry x="565" y="370" width="60" height="30" as="geometry" />
        </mxCell>
        <mxCell id="ollO1iBpmnBTuX-cM9Qd-27" value="using feldmans vss" style="text;html=1;align=center;verticalAlign=middle;whiteSpace=wrap;rounded=0;" vertex="1" parent="1">
          <mxGeometry x="380" y="490" width="250" height="30" as="geometry" />
        </mxCell>
        <mxCell id="ollO1iBpmnBTuX-cM9Qd-32" style="edgeStyle=orthogonalEdgeStyle;rounded=0;orthogonalLoop=1;jettySize=auto;html=1;exitX=0.5;exitY=1;exitDx=0;exitDy=0;entryX=0.5;entryY=0;entryDx=0;entryDy=0;" edge="1" parent="1" source="ollO1iBpmnBTuX-cM9Qd-28" target="ollO1iBpmnBTuX-cM9Qd-30">
          <mxGeometry relative="1" as="geometry" />
        </mxCell>
        <mxCell id="ollO1iBpmnBTuX-cM9Qd-28" value="shared commitments among each other" style="rounded=0;whiteSpace=wrap;html=1;" vertex="1" parent="1">
          <mxGeometry x="310" y="480" width="130" height="40" as="geometry" />
        </mxCell>
        <mxCell id="ollO1iBpmnBTuX-cM9Qd-35" style="edgeStyle=orthogonalEdgeStyle;rounded=0;orthogonalLoop=1;jettySize=auto;html=1;exitX=0.5;exitY=1;exitDx=0;exitDy=0;entryX=0.5;entryY=0;entryDx=0;entryDy=0;" edge="1" parent="1" source="ollO1iBpmnBTuX-cM9Qd-30" target="ollO1iBpmnBTuX-cM9Qd-34">
          <mxGeometry relative="1" as="geometry" />
        </mxCell>
        <mxCell id="ollO1iBpmnBTuX-cM9Qd-30" value="verify authenticity&amp;nbsp;" style="rounded=0;whiteSpace=wrap;html=1;" vertex="1" parent="1">
          <mxGeometry x="310" y="560" width="130" height="30" as="geometry" />
        </mxCell>
        <mxCell id="ollO1iBpmnBTuX-cM9Qd-31" value="using ZPK&#39;s" style="text;html=1;align=center;verticalAlign=middle;whiteSpace=wrap;rounded=0;" vertex="1" parent="1">
          <mxGeometry x="442.5" y="560" width="125" height="30" as="geometry" />
        </mxCell>
        <mxCell id="ollO1iBpmnBTuX-cM9Qd-39" style="edgeStyle=orthogonalEdgeStyle;rounded=0;orthogonalLoop=1;jettySize=auto;html=1;exitX=1;exitY=0.5;exitDx=0;exitDy=0;entryX=0.5;entryY=0;entryDx=0;entryDy=0;" edge="1" parent="1" source="ollO1iBpmnBTuX-cM9Qd-34" target="ollO1iBpmnBTuX-cM9Qd-38">
          <mxGeometry relative="1" as="geometry" />
        </mxCell>
        <mxCell id="ollO1iBpmnBTuX-cM9Qd-34" value="valid commitments" style="rhombus;whiteSpace=wrap;html=1;" vertex="1" parent="1">
          <mxGeometry x="311.25" y="640" width="127.5" height="70" as="geometry" />
        </mxCell>
        <mxCell id="ollO1iBpmnBTuX-cM9Qd-51" value="" style="edgeStyle=orthogonalEdgeStyle;rounded=0;orthogonalLoop=1;jettySize=auto;html=1;" edge="1" parent="1" source="ollO1iBpmnBTuX-cM9Qd-38" target="ollO1iBpmnBTuX-cM9Qd-44">
          <mxGeometry relative="1" as="geometry" />
        </mxCell>
        <mxCell id="ollO1iBpmnBTuX-cM9Qd-38" value="computation of public key" style="rounded=0;whiteSpace=wrap;html=1;" vertex="1" parent="1">
          <mxGeometry x="308.75" y="760" width="130" height="30" as="geometry" />
        </mxCell>
        <mxCell id="ollO1iBpmnBTuX-cM9Qd-50" value="" style="edgeStyle=orthogonalEdgeStyle;rounded=0;orthogonalLoop=1;jettySize=auto;html=1;" edge="1" parent="1" source="ollO1iBpmnBTuX-cM9Qd-44" target="ollO1iBpmnBTuX-cM9Qd-49">
          <mxGeometry relative="1" as="geometry" />
        </mxCell>
        <mxCell id="ollO1iBpmnBTuX-cM9Qd-44" value="wallet address computation" style="rounded=0;whiteSpace=wrap;html=1;" vertex="1" parent="1">
          <mxGeometry x="308.75" y="830" width="130" height="30" as="geometry" />
        </mxCell>
        <mxCell id="ollO1iBpmnBTuX-cM9Qd-45" value="P2TR" style="text;html=1;align=center;verticalAlign=middle;whiteSpace=wrap;rounded=0;" vertex="1" parent="1">
          <mxGeometry x="440" y="830" width="60" height="30" as="geometry" />
        </mxCell>
        <mxCell id="ollO1iBpmnBTuX-cM9Qd-54" value="" style="edgeStyle=orthogonalEdgeStyle;rounded=0;orthogonalLoop=1;jettySize=auto;html=1;" edge="1" parent="1" source="ollO1iBpmnBTuX-cM9Qd-49" target="ollO1iBpmnBTuX-cM9Qd-53">
          <mxGeometry relative="1" as="geometry" />
        </mxCell>
        <mxCell id="ollO1iBpmnBTuX-cM9Qd-49" value="user deposit BTC to given address&amp;nbsp;" style="rounded=0;whiteSpace=wrap;html=1;" vertex="1" parent="1">
          <mxGeometry x="120" y="830" width="130" height="30" as="geometry" />
        </mxCell>
        <mxCell id="ollO1iBpmnBTuX-cM9Qd-57" style="edgeStyle=orthogonalEdgeStyle;rounded=0;orthogonalLoop=1;jettySize=auto;html=1;exitX=0.5;exitY=1;exitDx=0;exitDy=0;entryX=0;entryY=0.5;entryDx=0;entryDy=0;" edge="1" parent="1" source="ollO1iBpmnBTuX-cM9Qd-53" target="ollO1iBpmnBTuX-cM9Qd-56">
          <mxGeometry relative="1" as="geometry" />
        </mxCell>
        <mxCell id="ollO1iBpmnBTuX-cM9Qd-53" value="once Transaction is confirmed" style="rounded=0;whiteSpace=wrap;html=1;" vertex="1" parent="1">
          <mxGeometry x="120" y="910" width="130" height="30" as="geometry" />
        </mxCell>
        <mxCell id="ollO1iBpmnBTuX-cM9Qd-56" value="update balance in users wallet" style="rounded=0;whiteSpace=wrap;html=1;" vertex="1" parent="1">
          <mxGeometry x="312.5" y="980" width="130" height="30" as="geometry" />
        </mxCell>
        <mxCell id="ollO1iBpmnBTuX-cM9Qd-58" value="&lt;h1 style=&quot;margin-top: 0px;&quot;&gt;user = &amp;gt; btc deposit&lt;/h1&gt;&lt;p&gt;&lt;br&gt;&lt;/p&gt;" style="text;html=1;whiteSpace=wrap;overflow=hidden;rounded=0;" vertex="1" parent="1">
          <mxGeometry x="580" y="660" width="230" height="120" as="geometry" />
        </mxCell>
        <mxCell id="ollO1iBpmnBTuX-cM9Qd-59" value="elliptically curve point" style="text;html=1;align=center;verticalAlign=middle;whiteSpace=wrap;rounded=0;" vertex="1" parent="1">
          <mxGeometry x="442.5" y="760" width="87.5" height="30" as="geometry" />
        </mxCell>
      </root>
    </mxGraphModel>
  </diagram>
</mxfile>
